<svg xmlns="http://www.w3.org/2000/svg"  viewBox="0 0 64 64" width="64px" height="64px"><linearGradient id="dAvsn8cMfZ5L0b3152ww8a" x1="32" x2="32" y1="22.667" y2="42.766" gradientUnits="userSpaceOnUse" spreadMethod="reflect"><stop offset="0" stop-color="#6dc7ff"/><stop offset="1" stop-color="#e6abff"/></linearGradient><path fill="url(#dAvsn8cMfZ5L0b3152ww8a)" d="M32 23A9 9 0 1 0 32 41A9 9 0 1 0 32 23Z"/><linearGradient id="dAvsn8cMfZ5L0b3152ww8b" x1="32" x2="32" y1="5.667" y2="58.343" gradientUnits="userSpaceOnUse" spreadMethod="reflect"><stop offset="0" stop-color="#1a6dff"/><stop offset="1" stop-color="#c822ff"/></linearGradient><path fill="url(#dAvsn8cMfZ5L0b3152ww8b)" d="M32,6C17.663,6,6,17.663,6,32s11.663,26,26,26s26-11.663,26-26S46.337,6,32,6z M32,8 c8.445,0,15.879,4.388,20.158,11H32v0.006c-3.329,0-6.658,1.267-9.192,3.801c-1.958,1.958-3.151,4.393-3.596,6.934L12.33,18.273 C16.673,12.069,23.869,8,32,8z M39.778,39.778c-4.289,4.289-11.268,4.289-15.557,0s-4.289-11.268,0-15.557 c2.145-2.145,4.962-3.217,7.778-3.217s5.634,1.072,7.778,3.217C44.067,28.511,44.067,35.489,39.778,39.778z M8,32 c0-4.302,1.143-8.339,3.133-11.834l7.959,13.265c0.312,2.837,1.545,5.591,3.715,7.762c2.534,2.534,5.863,3.802,9.192,3.802 c1.946,0,3.886-0.446,5.673-1.312L30.46,55.945C17.942,55.148,8,44.716,8,32z M32.76,55.981l9.102-15.474l-0.033-0.019 c4.409-5.101,4.205-12.838-0.637-17.68c-0.704-0.704-1.473-1.299-2.282-1.808h14.41C55.028,24.298,56,28.037,56,32 C56,44.979,45.642,55.577,32.76,55.981z"/></svg>