<svg fill="#000000" xmlns="http://www.w3.org/2000/svg"  viewBox="0 0 64 64" width="64px" height="64px"><path d="M 5 4 C 3.347656 4 2 5.347656 2 7 L 2 47 C 2 48.652344 3.347656 50 5 50 L 24 50 L 24 52 L 16.660156 52 C 15.320313 52 14.070313 52.519531 13.121094 53.460938 L 8 58.589844 C 7.429688 59.160156 7.261719 60.019531 7.570313 60.769531 C 7.878906 61.519531 8.601563 62 9.410156 62 L 54.589844 62 C 55.398438 62 56.121094 61.519531 56.429688 60.769531 C 56.738281 60.019531 56.570313 59.160156 56 58.589844 L 50.878906 53.460938 C 49.929688 52.519531 48.679688 52 47.339844 52 L 40 52 L 40 50 L 59 50 C 60.652344 50 62 48.652344 62 47 L 62 7 C 62 5.347656 60.652344 4 59 4 Z M 5 6 L 59 6 C 59.550781 6 60 6.449219 60 7 L 60 47 C 60 47.550781 59.550781 48 59 48 L 5 48 C 4.449219 48 4 47.550781 4 47 L 4 7 C 4 6.449219 4.449219 6 5 6 Z M 9 10 C 8.449219 10 8 10.445313 8 11 L 8 43 C 8 43.554688 8.449219 44 9 44 L 55 44 C 55.550781 44 56 43.554688 56 43 L 56 11 C 56 10.445313 55.550781 10 55 10 Z M 10 12 L 54 12 L 54 42 L 10 42 Z M 24 16 C 23.746094 16 23.488281 16.097656 23.292969 16.292969 L 15.292969 24.292969 C 14.902344 24.683594 14.902344 25.316406 15.292969 25.707031 L 23.292969 33.707031 C 23.488281 33.902344 23.742188 34 24 34 C 24.257813 34 24.511719 33.902344 24.707031 33.707031 C 25.097656 33.316406 25.097656 32.683594 24.707031 32.292969 L 17.414063 25 L 24.707031 17.707031 C 25.097656 17.316406 25.097656 16.683594 24.707031 16.292969 C 24.511719 16.097656 24.253906 16 24 16 Z M 40 16 C 39.746094 16 39.488281 16.097656 39.292969 16.292969 C 38.902344 16.683594 38.902344 17.316406 39.292969 17.707031 L 46.585938 25 L 39.292969 32.292969 C 38.902344 32.683594 38.902344 33.316406 39.292969 33.707031 C 39.488281 33.902344 39.742188 34 40 34 C 40.257813 34 40.511719 33.902344 40.707031 33.707031 L 48.707031 25.707031 C 49.097656 25.316406 49.097656 24.683594 48.707031 24.292969 L 40.707031 16.292969 C 40.511719 16.097656 40.253906 16 40 16 Z M 12 36 C 11.449219 36 11 36.445313 11 37 L 11 39 C 11 39.554688 11.449219 40 12 40 C 12.550781 40 13 39.554688 13 39 L 13 37 C 13 36.445313 12.550781 36 12 36 Z M 17 36 C 16.449219 36 16 36.445313 16 37 L 16 39 C 16 39.554688 16.449219 40 17 40 C 17.550781 40 18 39.554688 18 39 L 18 37 C 18 36.445313 17.550781 36 17 36 Z M 22 36 C 21.449219 36 21 36.445313 21 37 L 21 39 C 21 39.554688 21.449219 40 22 40 C 22.550781 40 23 39.554688 23 39 L 23 37 C 23 36.445313 22.550781 36 22 36 Z M 27 36 C 26.449219 36 26 36.445313 26 37 L 26 39 C 26 39.554688 26.449219 40 27 40 C 27.550781 40 28 39.554688 28 39 L 28 37 C 28 36.445313 27.550781 36 27 36 Z M 32 36 C 31.449219 36 31 36.445313 31 37 L 31 39 C 31 39.554688 31.449219 40 32 40 C 32.550781 40 33 39.554688 33 39 L 33 37 C 33 36.445313 32.550781 36 32 36 Z M 37 36 C 36.449219 36 36 36.445313 36 37 L 36 39 C 36 39.554688 36.449219 40 37 40 C 37.550781 40 38 39.554688 38 39 L 38 37 C 38 36.445313 37.550781 36 37 36 Z M 42 36 C 41.449219 36 41 36.445313 41 37 L 41 39 C 41 39.554688 41.449219 40 42 40 C 42.550781 40 43 39.554688 43 39 L 43 37 C 43 36.445313 42.550781 36 42 36 Z M 47 36 C 46.449219 36 46 36.445313 46 37 L 46 39 C 46 39.554688 46.449219 40 47 40 C 47.550781 40 48 39.554688 48 39 L 48 37 C 48 36.445313 47.550781 36 47 36 Z M 52 36 C 51.449219 36 51 36.445313 51 37 L 51 39 C 51 39.554688 51.449219 40 52 40 C 52.550781 40 53 39.554688 53 39 L 53 37 C 53 36.445313 52.550781 36 52 36 Z M 26 50 L 38 50 L 38 56 L 26 56 Z M 16.660156 54 L 24 54 L 24 56 C 24 57.101563 24.898438 58 26 58 L 38 58 C 39.101563 58 40 57.101563 40 56 L 40 54 L 47.339844 54 C 48.128906 54 48.910156 54.320313 49.460938 54.878906 L 54.589844 60 L 9.410156 60 L 14.539063 54.878906 C 15.089844 54.320313 15.871094 54 16.660156 54 Z"/></svg>