<svg fill="#000000" xmlns="http://www.w3.org/2000/svg"  viewBox="0 0 26 26" width="26px" height="26px"><path d="M 0.8125 0 C 0.371094 0 0 0.363281 0 0.8125 L 0 20.1875 C 0 20.636719 0.371094 21 0.8125 21 L 10 21 L 10 22 L 4.1875 22 L 1 26 L 25 26 L 21.8125 22 L 16 22 L 16 21 L 25.1875 21 C 25.628906 21 26 20.636719 26 20.1875 L 26 0.8125 C 26 0.363281 25.628906 0 25.1875 0 Z M 2.84375 2 L 23.15625 2 C 23.628906 2 24 2.351563 24 2.78125 L 24 18.21875 C 24 18.648438 23.628906 19 23.15625 19 L 2.84375 19 C 2.371094 19 2 18.648438 2 18.21875 L 2 2.78125 C 2 2.351563 2.371094 2 2.84375 2 Z M 9.375 5.125 L 4 10.5 L 9.375 15.875 L 10.8125 14.4375 L 6.875 10.5 L 10.8125 6.5625 Z M 16.625 5.125 L 15.1875 6.5625 L 19.125 10.5 L 15.1875 14.4375 L 16.625 15.875 L 22 10.5 Z"/></svg>