<svg xmlns="http://www.w3.org/2000/svg"  viewBox="0 0 64 64" width="64px" height="64px"><path d="M27.32,22.95c-0.33,0.35-0.66,0.71-0.99,1.08C26.62,23.64,26.95,23.27,27.32,22.95z"/><linearGradient id="3t0kbqJdbFGp30XE65l5pa" x1="20.874" x2="20.874" y1="3" y2="58.751" gradientUnits="userSpaceOnUse" spreadMethod="reflect"><stop offset="0" stop-color="#1a6dff"/><stop offset="1" stop-color="#c822ff"/></linearGradient><path fill="url(#3t0kbqJdbFGp30XE65l5pa)" d="M31.75,11c-0.88,0.68-1.76,1.4-2.64,2.16c-3.2,0.37-6.16,1.39-8.84,3.06 C11.82,21.77,12,31.72,12,31.82c0,0.52,0.01,1.02,0.04,1.52v0.01c0,0,0,0,0,0.01c-0.6,1.01-1.16,2.01-1.68,3 C10.12,34.93,10,33.41,10,31.84c-0.01-0.42-0.2-11.13,9.2-17.3C22.93,12.22,27.14,11.03,31.75,11z"/><linearGradient id="3t0kbqJdbFGp30XE65l5pb" x1="32.5" x2="32.5" y1="3" y2="58.751" gradientUnits="userSpaceOnUse" spreadMethod="reflect"><stop offset="0" stop-color="#1a6dff"/><stop offset="1" stop-color="#c822ff"/></linearGradient><path fill="url(#3t0kbqJdbFGp30XE65l5pb)" d="M32.5,21c-2.01,0-3.83,0.73-5.17,1.94c-0.01,0-0.01,0.01-0.01,0.01 c-0.37,0.32-0.7,0.69-0.99,1.08c-0.02,0.02-0.03,0.04-0.05,0.06C25.47,25.21,25,26.55,25,28c0,0.55,0.45,1,1,1h13c0.55,0,1-0.45,1-1 C40,24.14,36.64,21,32.5,21z M27.11,27c0.51-2.28,2.73-4,5.39-4s4.88,1.72,5.39,4H27.11z"/><linearGradient id="3t0kbqJdbFGp30XE65l5pc" x1="38.815" x2="38.815" y1="11.835" y2="13.87" gradientUnits="userSpaceOnUse" spreadMethod="reflect"><stop offset="0" stop-color="#1a6dff"/><stop offset="1" stop-color="#c822ff"/></linearGradient><path fill="url(#3t0kbqJdbFGp30XE65l5pc)" d="M39.92,12.18c-0.7,0.45-1.43,0.94-2.17,1.47c0,0-0.01,0-0.01,0.01 c-0.01-0.01-0.02-0.01-0.03-0.01c0.75-0.54,1.47-1.03,2.18-1.48C39.9,12.17,39.91,12.18,39.92,12.18z"/><linearGradient id="3t0kbqJdbFGp30XE65l5pd" x1="31.508" x2="31.508" y1="3.017" y2="58.98" gradientUnits="userSpaceOnUse" spreadMethod="reflect"><stop offset="0" stop-color="#1a6dff"/><stop offset="1" stop-color="#c822ff"/></linearGradient><path fill="url(#3t0kbqJdbFGp30XE65l5pd)" d="M53.27,24.39c4.55-9.25,4.98-16.43,1.18-19.69c-4.38-3.77-13.27-1.01-22.7,6.3 c-0.88,0.68-1.76,1.4-2.64,2.16c-2.85,2.44-5.72,5.28-8.5,8.46c-3.37,3.86-6.26,7.84-8.57,11.72v0.01c0,0,0,0,0,0.01 c-0.6,1.01-1.16,2.01-1.68,3c-3.04,5.81-4.62,11.19-4.33,15.29c0.18,2.47,1.03,4.37,2.52,5.65c1.31,1.13,3.04,1.68,5.1,1.68 c4.02,0,9.28-2.09,15.08-6.14c0.96,0.11,1.95,0.16,2.96,0.16c14.87,0,20.7-12.17,21.72-14.61c0.13-0.31,0.1-0.67-0.09-0.94 c-0.18-0.28-0.5-0.45-0.83-0.45h-13.9c-0.41,0-0.79,0.26-0.93,0.64C36.89,39.65,34.8,41,32.47,41c-3.03,0-5.48-2.25-5.48-5.01 L52.93,36c0.53,0,0.96-0.41,1-0.93c0.24-3.62-0.11-6.93-1.01-9.86L53.27,24.39z M9.85,55.79c-1.07-0.93-1.68-2.37-1.82-4.29 c-0.49-6.87,5.17-18.35,14.09-28.56C33.85,9.5,48.06,1.84,53.15,6.21c2.8,2.41,2.38,8.5-1.08,16.05c-0.03,0.06-0.11,0.2-0.16,0.29 c0-0.02-0.01-0.03-0.02-0.05c-0.3-0.67-0.64-1.31-1.02-1.92c0.04-0.1,0.09-0.22,0.11-0.25c2.54-5.9,2.68-10.23,0.37-12.22 C47.5,4.77,36.46,9.26,23.56,24.13c-4.97,5.73-8.94,11.74-11.3,17.01c-0.02,0.03-0.04,0.07-0.05,0.11 c-0.03,0.03-0.04,0.07-0.05,0.11c-0.01,0.01-0.01,0.02-0.01,0.03c-0.07,0.16-0.15,0.32-0.22,0.48c-2.49,5.87-2.59,10.03-0.28,12.02 c0.85,0.74,1.96,1.1,3.3,1.1c2.3,0,5.26-1.08,8.72-3.19h0.02c0.68,0.22,1.38,0.42,2.1,0.58c0.01,0,0.01,0,0.02,0 C18.71,56.92,12.7,58.24,9.85,55.79z M13.24,44c1.92,3.01,4.68,5.34,8.04,6.87c-3.89,2.14-6.93,2.71-8.32,1.51 C11.59,51.2,11.7,48.11,13.24,44z M51.98,34H26.07c-0.48,0-0.9,0.35-0.98,0.82c-0.07,0.39-0.11,0.78-0.11,1.18c0,3.86,3.35,7,7.49,7 c2.9,0,5.54-1.58,6.76-4h11.69c-1.91,3.72-7.5,12-19.23,12c-3.67,0-12.67-0.86-17.17-8.71l-0.31-0.64 c2.3-5.02,6.13-10.74,10.87-16.21c0.4-0.46,0.8-0.91,1.2-1.35c0.02-0.02,0.03-0.04,0.05-0.06c0.29-0.39,0.62-0.76,0.99-1.08 c0,0,0-0.01,0.01-0.01c3.63-3.89,7.18-6.99,10.41-9.28c-0.01-0.01-0.02-0.01-0.03-0.01c0.75-0.54,1.47-1.03,2.18-1.48 c0.01,0,0.02,0.01,0.03,0.01s0.01-0.01,0.02-0.01c4.77-2.99,8.52-3.93,10.1-2.55c1.42,1.23,1.26,4.46-0.43,8.76 c-0.01,0.03-0.06,0.12-0.11,0.22c0-0.01-0.01-0.02-0.02-0.03c-2.34-2.95-5.57-5.14-9.56-6.39c-0.7,0.45-1.43,0.94-2.17,1.47 c0,0-0.01,0-0.01,0.01C47.11,15.85,52.38,23.4,51.98,34z"/><linearGradient id="3t0kbqJdbFGp30XE65l5pe" x1="38.815" x2="38.815" y1="12.044" y2="13.777" gradientUnits="userSpaceOnUse" spreadMethod="reflect"><stop offset="0" stop-color="#1a6dff"/><stop offset="1" stop-color="#c822ff"/></linearGradient><path fill="url(#3t0kbqJdbFGp30XE65l5pe)" d="M39.92,12.18c-0.7,0.45-1.43,0.94-2.17,1.47c0,0-0.01,0-0.01,0.01 c-0.01-0.01-0.02-0.01-0.03-0.01c0.75-0.54,1.47-1.03,2.18-1.48C39.9,12.17,39.91,12.18,39.92,12.18z"/><linearGradient id="3t0kbqJdbFGp30XE65l5pf" x1="20.555" x2="20.555" y1="13.063" y2="50.813" gradientUnits="userSpaceOnUse" spreadMethod="reflect"><stop offset="0" stop-color="#6dc7ff"/><stop offset="1" stop-color="#e6abff"/></linearGradient><path fill="url(#3t0kbqJdbFGp30XE65l5pf)" d="M29.11,13.16c-2.85,2.44-5.72,5.28-8.5,8.46c-3.37,3.86-6.26,7.84-8.57,11.72 c-0.03-0.5-0.04-1-0.04-1.52c0-0.1-0.18-10.05,8.27-15.6C22.95,14.55,25.91,13.53,29.11,13.16z"/><linearGradient id="3t0kbqJdbFGp30XE65l5pg" x1="33.141" x2="33.141" y1="13.063" y2="50.813" gradientUnits="userSpaceOnUse" spreadMethod="reflect"><stop offset="0" stop-color="#6dc7ff"/><stop offset="1" stop-color="#e6abff"/></linearGradient><path fill="url(#3t0kbqJdbFGp30XE65l5pg)" d="M25.11,34.82C25.04,35.21,25,35.6,25,36c0,3.86,3.36,7,7.5,7c2.91,0,5.55-1.58,6.78-4h11.71 c-1.92,3.72-7.52,12-19.27,12c-3.67,0-12.69-0.86-17.2-8.71l-0.31-0.64c2.3-5.02,6.13-10.74,10.87-16.21c0.4-0.46,0.8-0.91,1.2-1.35 C25.47,25.21,25,26.55,25,28c0,0.55,0.45,1,1,1h13c0.55,0,1-0.45,1-1c0-3.86-3.36-7-7.5-7c-2.01,0-3.83,0.73-5.17,1.94 c3.63-3.89,7.19-7,10.42-9.29c9.41,2.18,14.7,9.74,14.3,20.35H26.09C25.61,34,25.19,34.35,25.11,34.82z"/></svg>